<svg width="34" height="32" viewBox="0 0 34 32" fill="none" xmlns="http://www.w3.org/2000/svg">
<path d="M24.6002 2.19966C24.3373 0.946405 23.1962 0 21.8313 0C21.5193 0 21.2661 0.245812 21.2661 0.549916C21.2661 0.85402 21.5193 1.09983 21.8313 1.09983C22.7661 1.09983 23.5269 1.84002 23.5269 2.74958C23.5269 3.65914 22.7661 4.39933 21.8313 4.39933C21.5193 4.39933 21.2661 4.64514 21.2661 4.94924C21.2661 5.25335 21.5193 5.49916 21.8313 5.49916C23.1957 5.49916 24.3373 4.55275 24.6002 3.2995H32.0047V8.24874H1.48439V3.2995H9.39707H11.0926C11.4046 3.2995 11.6578 3.05368 11.6578 2.74958C11.6578 2.44548 11.4046 2.19966 11.0926 2.19966H10.0663C10.3002 1.56066 10.922 1.09983 11.6578 1.09983C12.5927 1.09983 13.3534 1.84002 13.3534 2.74958C13.3534 3.65914 12.5927 4.39933 11.6578 4.39933C11.3458 4.39933 11.0926 4.64514 11.0926 4.94924C11.0926 5.25335 11.3458 5.49916 11.6578 5.49916C13.2161 5.49916 14.4838 4.2657 14.4838 2.74958C14.4838 1.23346 13.2161 0 11.6578 0C10.2935 0 9.15177 0.946405 8.88896 2.19966H0.354004V9.34857V31.3452H33.1351V9.34857V2.19966H24.6002ZM32.0047 30.2454H1.48439V9.34857H32.0047V30.2454Z" fill="white"/>
</svg>
